{"title":"I,Frankenstein 2014 DVDRip R5 XViD - BiTo","uid":9678395,"size":1240739322,"categoryP":"video","categoryS":"movies","magnet":"?xt=urn:btih:2c1009a5984c837790d17dca781dc629e1e749b1&amp;dn=I%2CFrankenstein+2014+DVDRip+R5+XViD+-+BiTo&amp;tr=udp%3A%2F%2Ftracker.openbittorrent.com%3A80&amp;tr=udp%3A%2F%2Fopen.demonii.com%3A1337&amp;tr=udp%3A%2F%2Ftracker.coppersurfer.tk%3A6969&amp;tr=udp%3A%2F%2Fexodus.desync.com%3A6969","seeders":1,"leechers":0,"uploader":".SceNe.","files":1,"time":1393610578,"description":"\n &lt;a href=&quot;\nhttp://www.imdb.com/title/tt1418377/&quot; rel=&quot;nofollow&quot; target=&quot;_NEW&quot;&gt;\nhttp://www.imdb.com/title/tt1418377/&lt;/a&gt;\n\nSource: R5 Russian thx\nAudio: MP3 CAM @ 128kb\nContainer: AVi\nCodec: Xvid\n\nVideo\nID                                       : 0\nFormat                                   : MPEG-4 Visual\nFormat profile                           : Advanced Simple@L5\nFormat settings, BVOP                    : 2\nFormat settings, QPel                    : No\nFormat settings, GMC                     : No warppoints\nFormat settings, Matrix                  : Default (MPEG)\nCodec ID                                 : XVID\nCodec ID/Hint                            : XviD\nDuration                                 : 1h 29mn\nBit rate                                 : 1 738 Kbps\nWidth                                    : 720 pixels\nHeight                                   : 304 pixels\nDisplay aspect ratio                     : 2.35:1\nFrame rate                               : 25.000 fps\nColor space                              : YUV\nChroma subsampling                       : 4:2:0\nBit depth                                : 8 bits\nScan type                                : Progressive\nCompression mode                         : Lossy\nBits/(Pixel*Frame)                       : 0.318\nStream size                              : 1.08 GiB (94%)\nWriting library                          : XviD 73\n\nAudio\nID                                       : 1\nFormat                                   : MPEG Audio\nFormat version                           : Version 1\nFormat profile                           : Layer 3\nMode                                     : Joint stereo\nMode extension                           : MS Stereo\nCodec ID                                 : 55\nCodec ID/Hint                            : MP3\nDuration                                 : 1h 29mn\nBit rate mode                            : Constant\nBit rate                                 : 112 Kbps\nChannel(s)                               : 2 channels\nSampling rate                            : 48.0 KHz\nCompression mode                         : Lossy\nStream size                              : 71.5 MiB (6%)\nAlignment                                : Aligned on interleaves\nInterleave, duration                     : 479 ms (11.97 video frames)\nInterleave, preload duration             : 216 ms\n\n &lt;a href=&quot;\nhttp://img703.imageshack.us/img703/365/9fo2.png&quot; rel=&quot;nofollow&quot; target=&quot;_NEW&quot;&gt;\nhttp://img703.imageshack.us/img703/365/9fo2.png&lt;/a&gt; &lt;a href=&quot;\nhttp://img62.imageshack.us/img62/8158/b6xj.png&quot; rel=&quot;nofollow&quot; target=&quot;_NEW&quot;&gt;\nhttp://img62.imageshack.us/img62/8158/b6xj.png&lt;/a&gt; &lt;a href=&quot;\nhttp://img31.imageshack.us/img31/5707/cko1.png&quot; rel=&quot;nofollow&quot; target=&quot;_NEW&quot;&gt;\nhttp://img31.imageshack.us/img31/5707/cko1.png&lt;/a&gt; &lt;a href=&quot;\nhttp://img577.imageshack.us/img577/8537/6g2n.png&quot; rel=&quot;nofollow&quot; target=&quot;_NEW&quot;&gt;\nhttp://img577.imageshack.us/img577/8537/6g2n.png&lt;/a&gt;","torrent":{"xt":"urn:btih:2c1009a5984c837790d17dca781dc629e1e749b1","amp;dn":"I%2CFrankenstein+2014+DVDRip+R5+XViD+-+BiTo","amp;tr":["udp%3A%2F%2Ftracker.openbittorrent.com%3A80","udp%3A%2F%2Fopen.demonii.com%3A1337","udp%3A%2F%2Ftracker.coppersurfer.tk%3A6969","udp%3A%2F%2Fexodus.desync.com%3A6969"],"infoHash":"2c1009a5984c837790d17dca781dc629e1e749b1","infoHashBuffer":{"type":"Buffer","data":[44,16,9,165,152,76,131,119,144,209,125,202,120,29,198,41,225,231,73,177]},"announce":[],"urlList":[]}}